<svg version="1.1" viewBox="0.0 0.0 1280.0 720.0" fill="none" stroke="none" stroke-linecap="square" stroke-miterlimit="10" xmlns:xlink="http://www.w3.org/1999/xlink" xmlns="http://www.w3.org/2000/svg"><clipPath id="p6.0"><path d="m0 0l1280.0 0l0 720.0l-1280.0 0l0 -720.0z" clip-rule="nonzero"/></clipPath><g clip-path="url(#p6.0)"><path fill="#ffffff" d="m0 0l1280.0 0l0 720.0l-1280.0 0z" fill-rule="evenodd"/><path fill="#000000" fill-opacity="0.0" d="m73.27034 152.40158l1149.3228 0l0 530.58264l-1149.3228 0z" fill-rule="evenodd"/><path fill="#000000" d="m97.55159 285.02863q-5.875 0 -9.5625 -3.921875q-3.671875 -3.921875 -3.671875 -9.875q0 -6.0 3.6875 -9.90625q3.703125 -3.90625 9.546875 -3.90625q5.875 0 9.546875 3.921875q3.6875 3.921875 3.6875 9.890625q0 6.0 -3.703125 9.90625q-3.6875 3.890625 -9.53125 3.890625zm0 -2.96875q4.359375 0 7.078125 -3.046875q2.71875 -3.0625 2.71875 -7.78125q0 -4.8125 -2.71875 -7.828125q-2.71875 -3.015625 -7.078125 -3.015625q-4.328125 0 -7.0625 2.96875q-2.734375 2.953125 -2.734375 7.875q0 4.796875 2.6875 7.8125q2.703125 3.015625 7.109375 3.015625zm51.951218 2.484375l0 -13.125q0 -4.0 -3.546875 -4.0q-1.53125 0 -2.953125 0.90625q-1.40625 0.90625 -2.171875 2.0625l0 14.15625l-3.0 0l0 -13.125q0 -4.0 -3.5625 -4.0q-1.484375 0 -2.890625 0.921875q-1.390625 0.921875 -2.1875 2.078125l0 14.125l-3.0 0l0 -19.3125l3.0 0l0 2.796875q0.6875 -1.171875 2.5625 -2.21875q1.875 -1.0625 3.671875 -1.0625q2.25 0 3.5 1.046875q1.265625 1.03125 1.703125 2.546875q1.0 -1.5625 2.84375 -2.578125q1.84375 -1.015625 3.640625 -1.015625q5.390625 0 5.390625 5.84375l0 13.953125l-3.0 0zm17.444977 0.484375q-4.203125 0 -6.890625 -2.859375q-2.671875 -2.859375 -2.671875 -7.3125q0 -4.46875 2.671875 -7.28125q2.6875 -2.828125 6.890625 -2.828125q4.203125 0 6.875 2.828125q2.6875 2.8125 2.6875 7.28125q0 4.453125 -2.6875 7.3125q-2.671875 2.859375 -6.875 2.859375zm0 -2.6875q2.796875 0 4.59375 -2.09375q1.8125 -2.109375 1.8125 -5.390625q0 -3.234375 -1.8125 -5.328125q-1.796875 -2.109375 -4.59375 -2.109375q-2.796875 0 -4.625 2.09375q-1.8125 2.078125 -1.8125 5.34375q0 3.328125 1.796875 5.40625q1.796875 2.078125 4.640625 2.078125zm28.442474 2.203125l0 -2.875q-1.078125 1.46875 -2.78125 2.421875q-1.703125 0.9375 -3.734375 0.9375q-3.890625 0 -6.25 -2.765625q-2.359375 -2.765625 -2.359375 -7.359375q0 -4.640625 2.375 -7.390625q2.390625 -2.765625 6.234375 -2.765625q1.953125 0 3.65625 0.90625q1.703125 0.890625 2.859375 2.484375l0 -10.28125l3.0 0l0 26.6875l-3.0 0zm-5.796875 -2.203125q1.796875 0 3.390625 -0.875q1.609375 -0.875 2.40625 -2.15625l0 -8.765625q-0.796875 -1.28125 -2.40625 -2.203125q-1.59375 -0.921875 -3.390625 -0.921875q-2.796875 0 -4.5 2.046875q-1.703125 2.03125 -1.703125 5.4375q0 3.328125 1.671875 5.390625q1.6875 2.046875 4.53125 2.046875zm23.51561 2.6875q-4.359375 0 -7.109375 -2.84375q-2.734375 -2.84375 -2.734375 -7.328125q0 -4.265625 2.71875 -7.1875q2.71875 -2.921875 6.8125 -2.921875q4.15625 0 6.71875 2.875q2.5625 2.875 2.5625 7.484375l0 0.75l-15.640625 0q0.15625 2.96875 2.125 4.828125q1.984375 1.859375 4.828125 1.859375q3.515625 0 5.953125 -2.4375l1.453125 1.953125q-2.96875 2.96875 -7.6875 2.96875zm6.0 -11.359375q0 -2.6875 -1.765625 -4.5625q-1.75 -1.875 -4.59375 -1.875q-2.671875 0 -4.453125 1.875q-1.78125 1.875 -1.859375 4.5625l12.671875 0zm7.8012238 10.875l0 -26.6875l3.0 0l0 26.6875l-3.0 0zm17.437485 0.484375q-4.203125 0 -6.890625 -2.859375q-2.671875 -2.859375 -2.671875 -7.3125q0 -4.46875 2.671875 -7.28125q2.6875 -2.828125 6.890625 -2.828125q4.203125 0 6.875 2.828125q2.6875 2.8125 2.6875 7.28125q0 4.453125 -2.6875 7.3125q-2.671875 2.859375 -6.875 2.859375zm0 -2.6875q2.796875 0 4.59375 -2.09375q1.8125 -2.109375 1.8125 -5.390625q0 -3.234375 -1.8125 -5.328125q-1.796875 -2.109375 -4.59375 -2.109375q-2.796875 0 -4.625 2.09375q-1.8125 2.078125 -1.8125 5.34375q0 3.328125 1.796875 5.40625q1.796875 2.078125 4.640625 2.078125z" fill-rule="nonzero"/><path fill="#00ffa7" d="m268.7508 284.54425l0 -26.6875l10.515625 0q6.328125 0 10.234375 3.6875q3.921875 3.6875 3.921875 9.6875q0 5.953125 -3.921875 9.640625q-3.90625 3.671875 -10.234375 3.671875l-10.515625 0zm10.515625 -5.0q3.71875 0 6.03125 -2.34375q2.328125 -2.34375 2.328125 -5.96875q0 -3.8125 -2.21875 -6.09375q-2.21875 -2.28125 -6.140625 -2.28125l-4.84375 0l0 16.6875l4.84375 0zm27.68872 5.484375q-7.125 0 -11.28125 -4.25l3.078125 -4.3125q1.390625 1.484375 3.546875 2.546875q2.171875 1.046875 4.9375 1.046875q2.359375 0 3.5 -0.890625q1.140625 -0.90625 1.140625 -2.0625q0 -1.203125 -1.328125 -1.875q-1.3125 -0.6875 -6.359375 -1.890625q-7.671875 -1.84375 -7.671875 -7.75q0 -3.453125 2.765625 -5.78125q2.78125 -2.34375 7.34375 -2.34375q6.359375 0 10.40625 3.71875l-3.15625 4.15625q-3.171875 -2.921875 -7.765625 -2.921875q-1.84375 0 -2.828125 0.75q-0.96875 0.734375 -0.96875 1.9375q0 1.03125 1.140625 1.625q1.140625 0.578125 2.859375 0.96875l3.671875 0.921875q7.640625 1.96875 7.640625 7.84375q0 3.953125 -2.84375 6.265625q-2.828125 2.296875 -7.828125 2.296875zm29.59375 -0.484375l-5.234375 -9.484375l-4.171875 0l0 9.484375l-5.671875 0l0 -26.6875l12.484375 0q4.078125 0 6.515625 2.421875q2.4375 2.421875 2.4375 6.1875q0 3.125 -1.65625 5.25q-1.65625 2.109375 -4.1875 2.671875l6.0 10.15625l-6.515625 0zm-3.4375 -14.484375q1.71875 0 2.859375 -0.953125q1.140625 -0.96875 1.140625 -2.640625q0 -1.6875 -1.140625 -2.640625q-1.140625 -0.96875 -2.859375 -0.96875l-5.96875 0l0 7.203125l5.96875 0zm14.079346 14.484375l0 -26.6875l12.484375 0q4.078125 0 6.515625 2.390625q2.4375 2.375 2.4375 6.21875q0 3.796875 -2.5 6.203125q-2.5 2.390625 -6.453125 2.390625l-6.8125 0l0 9.484375l-5.671875 0zm11.71875 -14.484375q1.6875 0 2.796875 -0.953125q1.125 -0.96875 1.125 -2.640625q0 -1.6875 -1.125 -2.640625q-1.109375 -0.96875 -2.796875 -0.96875l-6.046875 0l0 7.203125l6.046875 0z" fill-rule="nonzero"/><path fill="#000000" d="m383.59384 284.54425l0 -16.6875l-3.203125 0l0 -2.625l3.203125 0l0 -1.484375q0 -3.0 1.5 -4.640625q1.5 -1.640625 4.09375 -1.640625q2.4375 0 4.078125 1.484375l-1.234375 1.953125q-1.046875 -0.953125 -2.40625 -0.953125q-3.03125 0 -3.03125 3.796875l0 1.484375l3.921875 0l0 2.625l-3.921875 0l0 16.6875l-3.0 0zm18.913757 0.484375q-4.203125 0 -6.890625 -2.859375q-2.671875 -2.859375 -2.671875 -7.3125q0 -4.46875 2.671875 -7.28125q2.6875 -2.828125 6.890625 -2.828125q4.203125 0 6.875 2.828125q2.6875 2.8125 2.6875 7.28125q0 4.453125 -2.6875 7.3125q-2.671875 2.859375 -6.875 2.859375zm0 -2.6875q2.796875 0 4.59375 -2.09375q1.8125 -2.109375 1.8125 -5.390625q0 -3.234375 -1.8125 -5.328125q-1.796875 -2.109375 -4.59375 -2.109375q-2.796875 0 -4.625 2.09375q-1.8125 2.078125 -1.8125 5.34375q0 3.328125 1.796875 5.40625q1.796875 2.078125 4.640625 2.078125zm15.926819 -19.875q-0.796875 0 -1.40625 -0.578125q-0.59375 -0.578125 -0.59375 -1.421875q0 -0.84375 0.59375 -1.4375q0.609375 -0.609375 1.40625 -0.609375q0.828125 0 1.421875 0.609375q0.609375 0.59375 0.609375 1.4375q0 0.84375 -0.609375 1.421875q-0.59375 0.578125 -1.421875 0.578125zm-1.484375 22.078125l0 -19.3125l3.0 0l0 19.3125l-3.0 0zm28.835632 0.484375q-4.109375 0 -6.515625 -3.40625l0 10.28125l-3.0 0l0 -26.671875l3.0 0l0 2.875q1.046875 -1.484375 2.765625 -2.421875q1.71875 -0.9375 3.75 -0.9375q3.890625 0 6.25 2.71875q2.359375 2.71875 2.359375 7.390625q0 4.640625 -2.34375 7.40625q-2.34375 2.765625 -6.265625 2.765625zm-0.75 -2.6875q2.796875 0 4.484375 -2.03125q1.703125 -2.046875 1.703125 -5.453125q0 -3.3125 -1.6875 -5.375q-1.671875 -2.0625 -4.5 -2.0625q-1.8125 0 -3.390625 0.90625q-1.578125 0.90625 -2.375 2.171875l0 8.734375q0.796875 1.265625 2.375 2.1875q1.578125 0.921875 3.390625 0.921875zm14.114319 2.203125l0 -19.3125l3.0 0l0 3.109375q2.6875 -3.515625 6.4375 -3.515625l0 3.078125l-1.203125 -0.125q-1.359375 0 -3.0 0.984375q-1.640625 0.984375 -2.234375 2.09375l0 13.6875l-3.0 0zm21.637512 0.484375q-4.203125 0 -6.890625 -2.859375q-2.671875 -2.859375 -2.671875 -7.3125q0 -4.46875 2.671875 -7.28125q2.6875 -2.828125 6.890625 -2.828125q4.203125 0 6.875 2.828125q2.6875 2.8125 2.6875 7.28125q0 4.453125 -2.6875 7.3125q-2.671875 2.859375 -6.875 2.859375zm0 -2.6875q2.796875 0 4.59375 -2.09375q1.8125 -2.109375 1.8125 -5.390625q0 -3.234375 -1.8125 -5.328125q-1.796875 -2.109375 -4.59375 -2.109375q-2.796875 0 -4.625 2.09375q-1.8125 2.078125 -1.8125 5.34375q0 3.328125 1.796875 5.40625q1.796875 2.078125 4.640625 2.078125zm23.958069 2.6875q-4.109375 0 -6.515625 -3.40625l0 10.28125l-3.0 0l0 -26.671875l3.0 0l0 2.875q1.046875 -1.484375 2.765625 -2.421875q1.71875 -0.9375 3.75 -0.9375q3.890625 0 6.25 2.71875q2.3593445 2.71875 2.3593445 7.390625q0 4.640625 -2.3437195 7.40625q-2.34375 2.765625 -6.265625 2.765625zm-0.75 -2.6875q2.796875 0 4.484375 -2.03125q1.703125 -2.046875 1.703125 -5.453125q0 -3.3125 -1.6875 -5.375q-1.671875 -2.0625 -4.5 -2.0625q-1.8125 0 -3.390625 0.90625q-1.578125 0.90625 -2.375 2.171875l0 8.734375q0.796875 1.265625 2.375 2.1875q1.578125 0.921875 3.390625 0.921875zm22.55185 2.6875q-4.203125 0 -6.890625 -2.859375q-2.671875 -2.859375 -2.671875 -7.3125q0 -4.46875 2.671875 -7.28125q2.6875 -2.828125 6.890625 -2.828125q4.203125 0 6.875 2.828125q2.6875 2.8125 2.6875 7.28125q0 4.453125 -2.6875 7.3125q-2.671875 2.859375 -6.875 2.859375zm0 -2.6875q2.796875 0 4.59375 -2.09375q1.8125 -2.109375 1.8125 -5.390625q0 -3.234375 -1.8125 -5.328125q-1.796875 -2.109375 -4.59375 -2.109375q-2.796875 0 -4.625 2.09375q-1.8125 2.078125 -1.8125 5.34375q0 3.328125 1.796875 5.40625q1.796875 2.078125 4.640625 2.078125zm20.567444 2.6875q-4.921875 0 -7.8125 -3.046875l1.5625 -2.15625q0.96875 1.125 2.65625 1.953125q1.703125 0.8125 3.703125 0.8125q2.25 0 3.40625 -0.9375q1.15625 -0.953125 1.15625 -2.390625q0 -1.28125 -1.265625 -2.015625q-1.25 -0.75 -4.6875 -1.546875q-2.921875 -0.59375 -4.46875 -1.890625q-1.53125 -1.3125 -1.53125 -3.5q0 -2.453125 1.953125 -4.0q1.96875 -1.5625 5.25 -1.5625q4.359375 0 7.15625 2.796875l-1.40625 2.078125q-0.875 -1.03125 -2.375 -1.734375q-1.5 -0.703125 -3.375 -0.703125q-2.0 0 -3.140625 0.890625q-1.140625 0.875 -1.140625 2.15625q0 1.15625 1.265625 1.84375q1.28125 0.671875 4.734375 1.390625q2.921875 0.671875 4.4375 2.0625q1.515625 1.375 1.515625 3.65625q0 2.671875 -2.078125 4.265625q-2.078125 1.578125 -5.515625 1.578125zm17.349976 0q-4.28125 0 -4.28125 -4.53125l0 -12.640625l-3.1875 0l0 -2.625l3.1875 0l0 -5.28125l3.0 0l0 5.28125l3.921875 0l0 2.625l-3.921875 0l0 12.0q0 1.09375 0.484375 1.796875q0.484375 0.6875 1.484375 0.6875q1.234375 0 2.03125 -0.796875l0.890625 2.234375q-1.25 1.25 -3.609375 1.25zm15.32251 0q-4.203125 0 -6.890625 -2.859375q-2.671875 -2.859375 -2.671875 -7.3125q0 -4.46875 2.671875 -7.28125q2.6875 -2.828125 6.890625 -2.828125q4.203125 0 6.875 2.828125q2.6875 2.8125 2.6875 7.28125q0 4.453125 -2.6875 7.3125q-2.671875 2.859375 -6.875 2.859375zm0 -2.6875q2.796875 0 4.59375 -2.09375q1.8125 -2.109375 1.8125 -5.390625q0 -3.234375 -1.8125 -5.328125q-1.796875 -2.109375 -4.59375 -2.109375q-2.796875 0 -4.625 2.09375q-1.8125 2.078125 -1.8125 5.34375q0 3.328125 1.796875 5.40625q1.796875 2.078125 4.640625 2.078125zm34.278076 2.6875q-4.109375 0 -6.515625 -3.40625l0 10.28125l-3.0 0l0 -26.671875l3.0 0l0 2.875q1.046875 -1.484375 2.765625 -2.421875q1.71875 -0.9375 3.75 -0.9375q3.890625 0 6.25 2.71875q2.359375 2.71875 2.359375 7.390625q0 4.640625 -2.34375 7.40625q-2.34375 2.765625 -6.265625 2.765625zm-0.75 -2.6875q2.796875 0 4.484375 -2.03125q1.703125 -2.046875 1.703125 -5.453125q0 -3.3125 -1.6875 -5.375q-1.671875 -2.0625 -4.5 -2.0625q-1.8125 0 -3.390625 0.90625q-1.578125 0.90625 -2.375 2.171875l0 8.734375q0.796875 1.265625 2.375 2.1875q1.578125 0.921875 3.390625 0.921875zm22.55188 2.6875q-4.203125 0 -6.890625 -2.859375q-2.671875 -2.859375 -2.671875 -7.3125q0 -4.46875 2.671875 -7.28125q2.6875 -2.828125 6.890625 -2.828125q4.203125 0 6.875 2.828125q2.6875 2.8125 2.6875 7.28125q0 4.453125 -2.6875 7.3125q-2.671875 2.859375 -6.875 2.859375zm0 -2.6875q2.796875 0 4.59375 -2.09375q1.8125 -2.109375 1.8125 -5.390625q0 -3.234375 -1.8125 -5.328125q-1.796875 -2.109375 -4.59375 -2.109375q-2.796875 0 -4.625 2.09375q-1.8125 2.078125 -1.8125 5.34375q0 3.328125 1.796875 5.40625q1.796875 2.078125 4.640625 2.078125zm14.442444 2.203125l0 -19.3125l3.0 0l0 3.109375q2.6875 -3.515625 6.4375 -3.515625l0 3.078125l-1.203125 -0.125q-1.359375 0 -3.0 0.984375q-1.640625 0.984375 -2.234375 2.09375l0 13.6875l-3.0 0zm23.644958 0l0 -26.6875l9.109375 0q6.078125 0 9.875 3.78125q3.8125 3.78125 3.8125 9.59375q0 5.828125 -3.828125 9.578125q-3.8125 3.734375 -9.859375 3.734375l-9.109375 0zm9.109375 -2.953125q4.5625 0 7.40625 -2.859375q2.84375 -2.875 2.84375 -7.5q0 -4.640625 -2.8125 -7.515625q-2.796875 -2.890625 -7.4375 -2.890625l-5.796875 0l0 20.765625l5.796875 0zm27.484314 3.4375q-4.359375 0 -7.109375 -2.84375q-2.734375 -2.84375 -2.734375 -7.328125q0 -4.265625 2.71875 -7.1875q2.71875 -2.921875 6.8125 -2.921875q4.15625 0 6.71875 2.875q2.5625 2.875 2.5625 7.484375l0 0.75l-15.640625 0q0.15625 2.96875 2.125 4.828125q1.984375 1.859375 4.828125 1.859375q3.515625 0 5.953125 -2.4375l1.453125 1.953125q-2.96875 2.96875 -7.6875 2.96875zm6.0 -11.359375q0 -2.6875 -1.765625 -4.5625q-1.75 -1.875 -4.59375 -1.875q-2.671875 0 -4.453125 1.875q-1.78125 1.875 -1.859375 4.5625l12.671875 0zm7.8012695 10.875l0 -19.3125l3.0 0l0 3.109375q2.6875 -3.515625 6.4375 -3.515625l0 3.078125l-1.203125 -0.125q-1.359375 0 -3.0 0.984375q-1.640625 0.984375 -2.234375 2.09375l0 13.6875l-3.0 0zm21.918701 0.484375q-4.359375 0 -7.109375 -2.84375q-2.734375 -2.84375 -2.734375 -7.328125q0 -4.265625 2.71875 -7.1875q2.71875 -2.921875 6.8125 -2.921875q4.15625 0 6.71875 2.875q2.5625 2.875 2.5625 7.484375l0 0.75l-15.640625 0q0.15625 2.96875 2.125 4.828125q1.984375 1.859375 4.828125 1.859375q3.515625 0 5.953125 -2.4375l1.453125 1.953125q-2.96875 2.96875 -7.6875 2.96875zm6.0 -11.359375q0 -2.6875 -1.765625 -4.5625q-1.75 -1.875 -4.59375 -1.875q-2.671875 0 -4.453125 1.875q-1.78125 1.875 -1.859375 4.5625l12.671875 0zm20.95752 10.875l-6.953125 -8.6875l-3.203125 3.171875l0 5.515625l-3.0 0l0 -26.6875l3.0 0l0 17.640625l10.15625 -10.265625l3.796875 0l-8.546875 8.75l8.59375 10.5625l-3.84375 0zm30.48938 0.484375q-5.890625 0 -9.8125 -3.875q-3.90625 -3.890625 -3.90625 -9.921875q0 -6.046875 3.90625 -9.921875q3.921875 -3.890625 9.8125 -3.890625q6.359375 0 10.109375 5.28125l-2.796875 1.5625q-1.15625 -1.671875 -3.09375 -2.765625q-1.9375 -1.109375 -4.21875 -1.109375q-4.453125 0 -7.375 3.078125q-2.90625 3.078125 -2.90625 7.765625q0 4.71875 2.890625 7.78125q2.90625 3.046875 7.390625 3.046875q2.28125 0 4.21875 -1.078125q1.9375 -1.078125 3.09375 -2.796875l2.84375 1.5625q-3.875 5.28125 -10.15625 5.28125zm26.352478 -0.484375l0 -2.203125q-2.4375 2.6875 -6.390625 2.6875q-2.921875 0 -4.84375 -1.84375q-1.921875 -1.84375 -1.921875 -4.5625q0 -2.796875 1.890625 -4.578125q1.90625 -1.78125 4.875 -1.78125q4.15625 0 6.390625 2.640625l0 -3.484375q0 -1.953125 -1.390625 -3.015625q-1.375 -1.0625 -3.484375 -1.0625q-3.40625 0 -5.921875 2.6875l-1.40625 -2.078125q3.078125 -3.203125 7.71875 -3.203125q3.5625 0 5.515625 1.71875q1.96875 1.71875 1.96875 4.796875l0 13.28125l-3.0 0zm-5.3125 -1.6875q3.546875 0 5.3125 -2.390625l0 -3.640625q-1.765625 -2.40625 -5.3125 -2.40625q-2.125 0 -3.453125 1.1875q-1.3125 1.171875 -1.3125 3.0625q0 1.828125 1.3125 3.015625q1.328125 1.171875 3.453125 1.171875zm17.314392 -3.546875q0.796875 1.28125 2.375 2.15625q1.578125 0.875 3.390625 0.875q2.828125 0 4.53125 -2.046875q1.703125 -2.0625 1.703125 -5.390625q0 -3.359375 -1.6875 -5.421875q-1.671875 -2.0625 -4.546875 -2.0625q-1.8125 0 -3.390625 0.921875q-1.578125 0.921875 -2.375 2.203125l0 8.765625zm-3.0 5.234375l0 -26.6875l3.0 0l0 10.28125q2.484375 -3.390625 6.515625 -3.390625q3.84375 0 6.21875 2.796875q2.390625 2.796875 2.390625 7.359375q0 4.640625 -2.390625 7.390625q-2.375 2.734375 -6.21875 2.734375q-2.03125 0 -3.734375 -0.9375q-1.703125 -0.953125 -2.78125 -2.421875l0 2.875l-3.0 0zm22.999939 0l0 -19.3125l3.0 0l0 3.109375q2.6875 -3.515625 6.4375 -3.515625l0 3.078125l-1.203125 -0.125q-1.359375 0 -3.0 0.984375q-1.640625 0.984375 -2.234375 2.09375l0 13.6875l-3.0 0zm21.918762 0.484375q-4.359375 0 -7.109375 -2.84375q-2.734375 -2.84375 -2.734375 -7.328125q0 -4.265625 2.71875 -7.1875q2.71875 -2.921875 6.8125 -2.921875q4.15625 0 6.71875 2.875q2.5625 2.875 2.5625 7.484375l0 0.75l-15.640625 0q0.15625 2.96875 2.125 4.828125q1.984375 1.859375 4.828125 1.859375q3.515625 0 5.953125 -2.4375l1.453125 1.953125q-2.96875 2.96875 -7.6875 2.96875zm6.0 -11.359375q0 -2.6875 -1.765625 -4.5625q-1.75 -1.875 -4.59375 -1.875q-2.671875 0 -4.453125 1.875q-1.78125 1.875 -1.859375 4.5625l12.671875 0zm7.8012085 10.875l0 -19.3125l3.0 0l0 3.109375q2.6875 -3.515625 6.4375 -3.515625l0 3.078125l-1.203125 -0.125q-1.359375 0 -3.0 0.984375q-1.640625 0.984375 -2.234375 2.09375l0 13.6875l-3.0 0zm25.278137 0l0 -2.203125q-2.4375 2.6875 -6.390625 2.6875q-2.921875 0 -4.84375 -1.84375q-1.921875 -1.84375 -1.921875 -4.5625q0 -2.796875 1.890625 -4.578125q1.90625 -1.78125 4.875 -1.78125q4.15625 0 6.390625 2.640625l0 -3.484375q0 -1.953125 -1.390625 -3.015625q-1.375 -1.0625 -3.484375 -1.0625q-3.40625 0 -5.921875 2.6875l-1.40625 -2.078125q3.078125 -3.203125 7.71875 -3.203125q3.5625 0 5.515625 1.71875q1.96875 1.71875 1.96875 4.796875l0 13.28125l-3.0 0zm-5.3125 -1.6875q3.546875 0 5.3125 -2.390625l0 -3.640625q-1.765625 -2.40625 -5.3125 -2.40625q-2.125 0 -3.453125 1.1875q-1.3125 1.171875 -1.3125 3.0625q0 1.828125 1.3125 3.015625q1.328125 1.171875 3.453125 1.171875zm33.35309 2.171875q-4.359375 0 -7.109375 -2.84375q-2.734375 -2.84375 -2.734375 -7.328125q0 -4.265625 2.71875 -7.1875q2.71875 -2.921875 6.8125 -2.921875q4.15625 0 6.71875 2.875q2.5625 2.875 2.5625 7.484375l0 0.75l-15.640625 0q0.15625 2.96875 2.125 4.828125q1.984375 1.859375 4.828125 1.859375q3.515625 0 5.953125 -2.4375l1.453125 1.953125q-2.96875 2.96875 -7.6875 2.96875zm6.0 -11.359375q0 -2.6875 -1.765625 -4.5625q-1.75 -1.875 -4.59375 -1.875q-2.671875 0 -4.453125 1.875q-1.78125 1.875 -1.859375 4.5625l12.671875 0zm31.113708 10.875l0 -13.125q0 -4.0 -3.546875 -4.0q-1.53125 0 -2.953125 0.90625q-1.40625 0.90625 -2.171875 2.0625l0 14.15625l-3.0 0l0 -13.125q0 -4.0 -3.5625 -4.0q-1.484375 0 -2.890625 0.921875q-1.390625 0.921875 -2.1875 2.078125l0 14.125l-3.0 0l0 -19.3125l3.0 0l0 2.796875q0.6875 -1.171875 2.5625 -2.21875q1.875 -1.0625 3.671875 -1.0625q2.25 0 3.5 1.046875q1.265625 1.03125 1.703125 2.546875q1.0 -1.5625 2.84375 -2.578125q1.84375 -1.015625 3.640625 -1.015625q5.390625 0 5.390625 5.84375l0 13.953125l-3.0 0zm18.483704 0l0 -2.640625q7.046875 -5.5625 9.6875 -8.09375q2.640625 -2.546875 3.875 -4.5625q1.234375 -2.015625 1.234375 -3.9375q0 -2.203125 -1.515625 -3.546875q-1.515625 -1.34375 -4.03125 -1.34375q-4.6875 0 -7.25 3.359375l-2.03125 -2.109375q1.515625 -2.046875 3.96875 -3.125q2.46875 -1.078125 5.3125 -1.078125q3.875 0 6.40625 2.140625q2.546875 2.140625 2.546875 5.703125q0 3.234375 -2.75 6.8125q-2.734375 3.578125 -10.203125 9.46875l13.078125 0l0 2.953125l-18.328125 0zm33.598145 0.484375q-4.640625 0 -7.421875 -3.8125q-2.765625 -3.828125 -2.765625 -9.984375q0 -6.203125 2.8125 -9.984375q2.828125 -3.78125 7.375 -3.78125q3.125 0 5.421875 1.78125q2.296875 1.78125 3.53125 4.9375q1.25 3.15625 1.25 7.046875q0 3.828125 -1.25 7.03125q-1.234375 3.203125 -3.515625 4.984375q-2.265625 1.78125 -5.4375 1.78125zm0 -2.96875q3.203125 0 5.0 -2.875q1.8125 -2.875 1.8125 -7.953125q0 -5.125 -1.8125 -7.96875q-1.796875 -2.84375 -5.0 -2.84375q-3.1875 0 -5.0 2.84375q-1.796875 2.84375 -1.796875 7.96875q0 5.078125 1.78125 7.953125q1.78125 2.875 5.015625 2.875zm19.370605 2.484375l0 -22.28125l-4.28125 4.515625l-2.0 -2.03125l6.671875 -6.890625l2.921875 0l0 26.6875l-3.3125 0zm18.481812 0.484375q-6.171875 0 -9.40625 -4.28125l2.046875 -2.203125q2.75 3.515625 7.359375 3.515625q2.671875 0 4.40625 -1.609375q1.75 -1.625 1.75 -4.109375q0 -2.515625 -1.671875 -4.125q-1.65625 -1.625 -4.453125 -1.625q-3.5625 0 -6.15625 2.515625l-2.4375 -0.84375l0 -14.40625l16.3125 0l0 2.96875l-13.0 0l0 9.28125q0.96875 -0.96875 2.578125 -1.6875q1.625 -0.71875 3.671875 -0.71875q3.640625 0 6.046875 2.359375q2.421875 2.359375 2.421875 6.171875q0 3.953125 -2.625 6.375q-2.609375 2.421875 -6.84375 2.421875zm16.14685 -0.078125q-0.90625 0 -1.546875 -0.640625q-0.640625 -0.640625 -0.640625 -1.5625q0 -0.921875 0.640625 -1.5625q0.640625 -0.640625 1.546875 -0.640625q0.921875 0 1.5625 0.640625q0.640625 0.640625 0.640625 1.5625q0 0.921875 -0.640625 1.5625q-0.640625 0.640625 -1.5625 0.640625z" fill-rule="nonzero"/><path fill="#000000" fill-opacity="0.0" d="m82.27034 376.52032l427.45923 0l0 53.59189l-427.45923 0l0 -53.59189z" fill-rule="nonzero"/><path fill="#000000" d="m99.61409 417.5315q-6.46875 0 -10.78125 -4.265625q-4.3125 -4.28125 -4.3125 -10.921875q0 -6.640625 4.3125 -10.90625q4.3125 -4.265625 10.78125 -4.265625q6.984375 0 11.125 5.796875l-3.078125 1.71875q-1.28125 -1.84375 -3.421875 -3.046875q-2.125 -1.21875 -4.625 -1.21875q-4.890625 0 -8.109375 3.390625q-3.203125 3.390625 -3.203125 8.53125q0 5.203125 3.1875 8.5625q3.1875 3.359375 8.125 3.359375q2.5 0 4.625 -1.1875q2.140625 -1.1875 3.421875 -3.078125l3.125 1.71875q-4.265625 5.8125 -11.171875 5.8125zm28.993942 -0.53125l0 -2.421875q-2.6875 2.953125 -7.046875 2.953125q-3.203125 0 -5.328125 -2.015625q-2.109375 -2.03125 -2.109375 -5.03125q0 -3.078125 2.09375 -5.03125q2.09375 -1.96875 5.34375 -1.96875q4.578125 0 7.046875 2.90625l0 -3.828125q0 -2.15625 -1.53125 -3.3125q-1.515625 -1.171875 -3.84375 -1.171875q-3.734375 0 -6.515625 2.953125l-1.53125 -2.296875q3.390625 -3.515625 8.484375 -3.515625q3.921875 0 6.078125 1.890625q2.15625 1.890625 2.15625 5.28125l0 14.609375l-3.296875 0zm-5.859375 -1.84375q3.921875 0 5.859375 -2.640625l0 -4.0q-1.9375 -2.640625 -5.859375 -2.640625q-2.328125 0 -3.78125 1.296875q-1.453125 1.296875 -1.453125 3.359375q0 2.03125 1.453125 3.328125q1.453125 1.296875 3.78125 1.296875zm19.047333 -3.921875q0.890625 1.40625 2.625 2.375q1.734375 0.96875 3.71875 0.96875q3.125 0 4.984375 -2.265625q1.875 -2.265625 1.875 -5.921875q0 -3.6875 -1.84375 -5.953125q-1.84375 -2.265625 -5.015625 -2.265625q-1.984375 0 -3.71875 1.015625q-1.734375 1.0 -2.625 2.40625l0 9.640625zm-3.296875 5.765625l0 -29.34375l3.296875 0l0 11.296875q2.734375 -3.734375 7.171875 -3.734375q4.234375 0 6.84375 3.078125q2.625 3.078125 2.625 8.09375q0 5.109375 -2.625 8.125q-2.609375 3.015625 -6.84375 3.015625q-2.234375 0 -4.109375 -1.03125q-1.875 -1.046875 -3.0625 -2.671875l0 3.171875l-3.296875 0zm25.299942 0l0 -21.25l3.296875 0l0 3.4375q2.953125 -3.875 7.09375 -3.875l0 3.390625l-1.328125 -0.140625q-1.484375 0 -3.296875 1.078125q-1.796875 1.078125 -2.46875 2.3125l0 15.046875l-3.296875 0zm24.113724 0.53125q-4.796875 0 -7.8125 -3.125q-3.015625 -3.125 -3.015625 -8.046875q0 -4.71875 2.984375 -7.921875q3.0 -3.21875 7.5 -3.21875q4.5625 0 7.375 3.171875q2.828125 3.171875 2.828125 8.21875l0 0.84375l-17.203125 0q0.171875 3.25 2.34375 5.296875q2.1875 2.046875 5.3125 2.046875q3.875 0 6.546875 -2.6875l1.59375 2.15625q-3.265625 3.265625 -8.453125 3.265625zm6.59375 -12.5q0 -2.953125 -1.9375 -5.015625q-1.921875 -2.0625 -5.046875 -2.0625q-2.953125 0 -4.921875 2.0625q-1.953125 2.0625 -2.03125 5.015625l13.9375 0zm8.584442 11.96875l0 -21.25l3.296875 0l0 3.4375q2.953125 -3.875 7.09375 -3.875l0 3.390625l-1.328125 -0.140625q-1.484375 0 -3.296875 1.078125q-1.796875 1.078125 -2.46875 2.3125l0 15.046875l-3.296875 0zm27.816849 0l0 -2.421875q-2.6875 2.953125 -7.046875 2.953125q-3.203125 0 -5.328125 -2.015625q-2.109375 -2.03125 -2.109375 -5.03125q0 -3.078125 2.09375 -5.03125q2.09375 -1.96875 5.34375 -1.96875q4.578125 0 7.046875 2.90625l0 -3.828125q0 -2.15625 -1.53125 -3.3125q-1.515625 -1.171875 -3.84375 -1.171875q-3.734375 0 -6.515625 2.953125l-1.53125 -2.296875q3.390625 -3.515625 8.484375 -3.515625q3.921875 0 6.078125 1.890625q2.15625 1.890625 2.15625 5.28125l0 14.609375l-3.296875 0zm-5.859375 -1.84375q3.921875 0 5.859375 -2.640625l0 -4.0q-1.9375 -2.640625 -5.859375 -2.640625q-2.328125 0 -3.78125 1.296875q-1.453125 1.296875 -1.453125 3.359375q0 2.03125 1.453125 3.328125q1.453125 1.296875 3.78125 1.296875zm44.227432 1.84375l-7.484375 -11.65625l-5.859375 0l0 11.65625l-3.640625 0l0 -29.34375l11.78125 0q4.140625 0 6.671875 2.46875q2.53125 2.453125 2.53125 6.375q0 3.6875 -2.140625 5.953125q-2.125 2.265625 -5.46875 2.578125l7.921875 11.96875l-4.3125 0zm-5.640625 -14.875q2.640625 0 4.25 -1.5625q1.609375 -1.5625 1.609375 -4.0625q0 -2.515625 -1.609375 -4.046875q-1.609375 -1.546875 -4.25 -1.546875l-7.703125 0l0 11.21875l7.703125 0zm23.54132 15.40625q-4.796875 0 -7.8125 -3.125q-3.015625 -3.125 -3.015625 -8.046875q0 -4.71875 2.984375 -7.921875q3.0 -3.21875 7.5 -3.21875q4.5625 0 7.375 3.171875q2.828125 3.171875 2.828125 8.21875l0 0.84375l-17.203125 0q0.171875 3.25 2.34375 5.296875q2.1875 2.046875 5.3125 2.046875q3.875 0 6.546875 -2.6875l1.59375 2.15625q-3.265625 3.265625 -8.453125 3.265625zm6.59375 -12.5q0 -2.953125 -1.9375 -5.015625q-1.921875 -2.0625 -5.046875 -2.0625q-2.953125 0 -4.921875 2.0625q-1.953125 2.0625 -2.03125 5.015625l13.9375 0zm15.318817 12.5q-5.40625 0 -8.578125 -3.34375l1.71875 -2.375q1.046875 1.234375 2.921875 2.140625q1.875 0.890625 4.0625 0.890625q2.46875 0 3.75 -1.03125q1.28125 -1.03125 1.28125 -2.625q0 -1.40625 -1.390625 -2.21875q-1.390625 -0.8125 -5.171875 -1.6875q-3.21875 -0.671875 -4.90625 -2.09375q-1.6875 -1.4375 -1.6875 -3.84375q0 -2.6875 2.15625 -4.40625q2.15625 -1.71875 5.75 -1.71875q4.796875 0 7.875 3.078125l-1.53125 2.296875q-0.96875 -1.15625 -2.625 -1.921875q-1.640625 -0.765625 -3.71875 -0.765625q-2.1875 0 -3.453125 0.96875q-1.25 0.96875 -1.25 2.375q0 1.28125 1.40625 2.03125q1.40625 0.734375 5.203125 1.53125q3.203125 0.75 4.875 2.265625q1.671875 1.515625 1.671875 4.03125q0 2.9375 -2.296875 4.6875q-2.28125 1.734375 -6.0625 1.734375zm23.319336 0q-4.796875 0 -7.8125 -3.125q-3.015625 -3.125 -3.015625 -8.046875q0 -4.71875 2.984375 -7.921875q3.0 -3.21875 7.5 -3.21875q4.5625 0 7.375 3.171875q2.828125 3.171875 2.828125 8.21875l0 0.84375l-17.203125 0q0.171875 3.25 2.34375 5.296875q2.1875 2.046875 5.3125 2.046875q3.875 0 6.546875 -2.6875l1.59375 2.15625q-3.265625 3.265625 -8.453125 3.265625zm6.59375 -12.5q0 -2.953125 -1.9375 -5.015625q-1.921875 -2.0625 -5.046875 -2.0625q-2.953125 0 -4.921875 2.0625q-1.953125 2.0625 -2.03125 5.015625l13.9375 0zm21.881348 11.96875l0 -2.421875q-2.6875 2.953125 -7.046875 2.953125q-3.203125 0 -5.328125 -2.015625q-2.109375 -2.03125 -2.109375 -5.03125q0 -3.078125 2.09375 -5.03125q2.09375 -1.96875 5.34375 -1.96875q4.578125 0 7.046875 2.90625l0 -3.828125q0 -2.15625 -1.53125 -3.3125q-1.515625 -1.171875 -3.84375 -1.171875q-3.734375 0 -6.515625 2.953125l-1.53125 -2.296875q3.390625 -3.515625 8.484375 -3.515625q3.921875 0 6.078125 1.890625q2.15625 1.890625 2.15625 5.28125l0 14.609375l-3.296875 0zm-5.859375 -1.84375q3.921875 0 5.859375 -2.640625l0 -4.0q-1.9375 -2.640625 -5.859375 -2.640625q-2.328125 0 -3.78125 1.296875q-1.453125 1.296875 -1.453125 3.359375q0 2.03125 1.453125 3.328125q1.453125 1.296875 3.78125 1.296875zm15.750458 1.84375l0 -21.25l3.296875 0l0 3.4375q2.953125 -3.875 7.09375 -3.875l0 3.390625l-1.328125 -0.140625q-1.484375 0 -3.296875 1.078125q-1.796875 1.078125 -2.46875 2.3125l0 15.046875l-3.296875 0zm23.894989 0.53125q-4.65625 0 -7.640625 -3.171875q-2.96875 -3.171875 -2.96875 -8.0q0 -4.796875 2.96875 -7.96875q2.984375 -3.171875 7.640625 -3.171875q4.921875 0 7.78125 3.703125l-2.1875 2.015625q-2.03125 -2.765625 -5.421875 -2.765625q-3.25 0 -5.296875 2.265625q-2.046875 2.265625 -2.046875 5.921875q0 3.6875 2.015625 5.953125q2.03125 2.265625 5.328125 2.265625q3.34375 0 5.421875 -2.765625l2.1875 2.015625q-2.859375 3.703125 -7.78125 3.703125zm26.795593 -0.53125l0 -13.984375q0 -2.390625 -1.125 -3.609375q-1.125 -1.234375 -3.671875 -1.234375q-1.796875 0 -3.5 0.921875q-1.6875 0.921875 -2.796875 2.375l0 15.53125l-3.296875 0l0 -29.34375l3.296875 0l0 11.171875q1.421875 -1.625 3.4375 -2.609375q2.03125 -1.0 4.1875 -1.0q6.765625 0 6.765625 6.78125l0 15.0l-3.296875 0zm21.389954 0l0 -29.34375l3.640625 0l0 26.09375l13.640625 0l0 3.25l-17.28125 0zm34.980225 0l0 -2.421875q-2.6875 2.953125 -7.046875 2.953125q-3.203125 0 -5.328125 -2.015625q-2.109375 -2.03125 -2.109375 -5.03125q0 -3.078125 2.09375 -5.03125q2.09375 -1.96875 5.34375 -1.96875q4.578125 0 7.046875 2.90625l0 -3.828125q0 -2.15625 -1.53125 -3.3125q-1.515625 -1.171875 -3.84375 -1.171875q-3.734375 0 -6.515625 2.953125l-1.53125 -2.296875q3.390625 -3.515625 8.484375 -3.515625q3.921875 0 6.078125 1.890625q2.15625 1.890625 2.15625 5.28125l0 14.609375l-3.296875 0zm-5.859375 -1.84375q3.921875 0 5.859375 -2.640625l0 -4.0q-1.9375 -2.640625 -5.859375 -2.640625q-2.328125 0 -3.78125 1.296875q-1.453125 1.296875 -1.453125 3.359375q0 2.03125 1.453125 3.328125q1.453125 1.296875 3.78125 1.296875zm19.047333 -3.921875q0.890625 1.40625 2.625 2.375q1.734375 0.96875 3.71875 0.96875q3.125 0 4.984375 -2.265625q1.875 -2.265625 1.875 -5.921875q0 -3.6875 -1.84375 -5.953125q-1.84375 -2.265625 -5.015625 -2.265625q-1.984375 0 -3.71875 1.015625q-1.734375 1.0 -2.625 2.40625l0 9.640625zm-3.296875 5.765625l0 -29.34375l3.296875 0l0 11.296875q2.734375 -3.734375 7.171875 -3.734375q4.234375 0 6.84375 3.078125q2.625 3.078125 2.625 8.09375q0 5.109375 -2.625 8.125q-2.609375 3.015625 -6.84375 3.015625q-2.234375 0 -4.109375 -1.03125q-1.875 -1.046875 -3.0625 -2.671875l0 3.171875l-3.296875 0z" fill-rule="nonzero"/><path fill="#000000" d="m82.27034 419.86023l427.45923 0l0 3.960022l-427.45923 0l0 -3.960022z" fill-rule="nonzero"/><path fill="#000000" fill-opacity="0.0" d="m82.27034 472.52032l905.20996 0l0 53.591858l-905.20996 0l0 -53.591858z" fill-rule="nonzero"/><path fill="#000000" d="m95.20784 513.5315q-7.078125 0 -11.265625 -4.671875l2.15625 -2.765625q1.796875 2.015625 4.21875 3.09375q2.421875 1.078125 5.015625 1.078125q3.171875 0 5.03125 -1.40625q1.875 -1.40625 1.875 -3.640625q0 -3.484375 -5.453125 -4.984375q-6.46875 -1.703125 -8.25 -2.71875q-1.78125 -1.015625 -2.734375 -2.53125q-0.9375 -1.515625 -0.9375 -3.625q0 -3.53125 2.828125 -5.828125q2.84375 -2.3125 7.25 -2.3125q6.59375 0 10.421875 4.078125l-2.1875 2.6875q-3.171875 -3.515625 -8.5 -3.515625q-2.640625 0 -4.34375 1.28125q-1.6875 1.265625 -1.6875 3.375q0 1.546875 1.40625 2.625q1.421875 1.078125 4.09375 1.734375q6.25 1.71875 8.078125 2.828125q1.828125 1.09375 2.8125 2.703125q1.0 1.59375 1.0 3.890625q0 4.046875 -2.953125 6.34375q-2.953125 2.28125 -7.875 2.28125zm15.223068 4.796875q0.703125 0.34375 1.796875 0.34375q1.109375 0 1.859375 -0.46875q0.75 -0.453125 1.3125 -1.765625l1.40625 -3.21875l-8.890625 -21.46875l3.578125 0l7.078125 17.421875l7.03125 -17.421875l3.609375 0l-10.640625 25.5625q-1.765625 4.21875 -6.25 4.3125q-1.28125 0 -2.421875 -0.3125l0.53125 -2.984375zm28.950577 -4.796875q-5.40625 0 -8.578125 -3.34375l1.71875 -2.375q1.046875 1.234375 2.921875 2.140625q1.875 0.890625 4.0625 0.890625q2.46875 0 3.75 -1.03125q1.28125 -1.03125 1.28125 -2.625q0 -1.40625 -1.390625 -2.21875q-1.390625 -0.8125 -5.171875 -1.6875q-3.21875 -0.671875 -4.90625 -2.09375q-1.6875 -1.4375 -1.6875 -3.84375q0 -2.6875 2.15625 -4.40625q2.15625 -1.71875 5.75 -1.71875q4.796875 0 7.875 3.078125l-1.53125 2.296875q-0.96875 -1.15625 -2.625 -1.921875q-1.640625 -0.765625 -3.71875 -0.765625q-2.1875 0 -3.453125 0.96875q-1.25 0.96875 -1.25 2.375q0 1.28125 1.40625 2.03125q1.40625 0.734375 5.203125 1.53125q3.203125 0.75 4.875 2.265625q1.671875 1.515625 1.671875 4.03125q0 2.9375 -2.296875 4.6875q-2.28125 1.734375 -6.0625 1.734375zm19.100586 0q-4.71875 0 -4.71875 -4.96875l0 -13.90625l-3.515625 0l0 -2.90625l3.515625 0l0 -5.8125l3.3125 0l0 5.8125l4.3125 0l0 2.90625l-4.3125 0l0 13.203125q0 1.1875 0.515625 1.953125q0.53125 0.765625 1.640625 0.765625q1.359375 0 2.234375 -0.875l0.96875 2.453125q-1.359375 1.375 -3.953125 1.375zm17.154724 0q-4.796875 0 -7.8125 -3.125q-3.015625 -3.125 -3.015625 -8.046875q0 -4.71875 2.984375 -7.921875q3.0 -3.21875 7.5 -3.21875q4.5625 0 7.375 3.171875q2.828125 3.171875 2.828125 8.21875l0 0.84375l-17.203125 0q0.171875 3.25 2.34375 5.296875q2.1875 2.046875 5.3125 2.046875q3.875 0 6.546875 -2.6875l1.59375 2.15625q-3.265625 3.265625 -8.453125 3.265625zm6.59375 -12.5q0 -2.953125 -1.9375 -5.015625q-1.921875 -2.0625 -5.046875 -2.0625q-2.953125 0 -4.921875 2.0625q-1.953125 2.0625 -2.03125 5.015625l13.9375 0zm34.240692 11.96875l0 -14.4375q0 -4.390625 -3.921875 -4.390625q-1.671875 0 -3.234375 0.984375q-1.5625 0.984375 -2.390625 2.265625l0 15.578125l-3.296875 0l0 -14.4375q0 -4.390625 -3.921875 -4.390625q-1.625 0 -3.171875 1.015625q-1.53125 1.0 -2.421875 2.28125l0 15.53125l-3.296875 0l0 -21.25l3.296875 0l0 3.078125q0.75 -1.28125 2.8125 -2.4375q2.078125 -1.171875 4.0625 -1.171875q2.453125 0 3.84375 1.15625q1.390625 1.140625 1.875 2.8125q1.09375 -1.71875 3.109375 -2.84375q2.03125 -1.125 4.015625 -1.125q5.9375 0 5.9375 6.421875l0 15.359375l-3.296875 0zm16.63005 0.53125q-5.40625 0 -8.578125 -3.34375l1.71875 -2.375q1.046875 1.234375 2.921875 2.140625q1.875 0.890625 4.0625 0.890625q2.46875 0 3.75 -1.03125q1.28125 -1.03125 1.28125 -2.625q0 -1.40625 -1.390625 -2.21875q-1.390625 -0.8125 -5.171875 -1.6875q-3.21875 -0.671875 -4.90625 -2.09375q-1.6875 -1.4375 -1.6875 -3.84375q0 -2.6875 2.15625 -4.40625q2.15625 -1.71875 5.75 -1.71875q4.796875 0 7.875 3.078125l-1.53125 2.296875q-0.96875 -1.15625 -2.625 -1.921875q-1.640625 -0.765625 -3.71875 -0.765625q-2.1875 0 -3.453125 0.96875q-1.25 0.96875 -1.25 2.375q0 1.28125 1.40625 2.03125q1.40625 0.734375 5.203125 1.53125q3.203125 0.75 4.875 2.265625q1.671875 1.515625 1.671875 4.03125q0 2.9375 -2.296875 4.6875q-2.28125 1.734375 -6.0625 1.734375zm11.741211 -9.734375l0 -2.890625l10.5625 0l0 2.890625l-10.5625 0zm20.559357 9.734375q-4.71875 0 -4.71875 -4.96875l0 -13.90625l-3.515625 0l0 -2.90625l3.515625 0l0 -5.8125l3.3125 0l0 5.8125l4.3125 0l0 2.90625l-4.3125 0l0 13.203125q0 1.1875 0.515625 1.953125q0.53125 0.765625 1.640625 0.765625q1.359375 0 2.234375 -0.875l0.96875 2.453125q-1.359375 1.375 -3.953125 1.375zm21.9516 -0.53125l0 -13.984375q0 -2.390625 -1.125 -3.609375q-1.125 -1.234375 -3.671875 -1.234375q-1.796875 0 -3.5 0.921875q-1.6875 0.921875 -2.796875 2.375l0 15.53125l-3.296875 0l0 -29.34375l3.296875 0l0 11.171875q1.421875 -1.625 3.4375 -2.609375q2.03125 -1.0 4.1875 -1.0q6.765625 0 6.765625 6.78125l0 15.0l-3.296875 0zm11.522308 -24.28125q-0.875 0 -1.53125 -0.640625q-0.65625 -0.640625 -0.65625 -1.5625q0 -0.921875 0.65625 -1.578125q0.65625 -0.671875 1.53125 -0.671875q0.9375 0 1.59375 0.671875q0.65625 0.65625 0.65625 1.578125q0 0.921875 -0.65625 1.5625q-0.65625 0.640625 -1.59375 0.640625zm-1.625 24.28125l0 -21.25l3.296875 0l0 21.25l-3.296875 0zm24.243744 0l0 -13.90625q0 -2.8125 -1.296875 -3.859375q-1.296875 -1.0625 -3.453125 -1.0625q-1.84375 0 -3.625 0.984375q-1.78125 0.984375 -2.671875 2.3125l0 15.53125l-3.296875 0l0 -21.25l3.296875 0l0 3.078125q1.375 -1.578125 3.375 -2.59375q2.0 -1.015625 4.203125 -1.015625q6.765625 0 6.765625 6.859375l0 14.921875l-3.296875 0zm24.384583 0l-7.65625 -9.546875l-3.53125 3.46875l0 6.078125l-3.296875 0l0 -29.34375l3.296875 0l0 19.40625l11.1875 -11.3125l4.171875 0l-9.40625 9.640625l9.453125 11.609375l-4.21875 0zm9.756561 -24.28125q-0.875 0 -1.53125 -0.640625q-0.65625 -0.640625 -0.65625 -1.5625q0 -0.921875 0.65625 -1.578125q0.65625 -0.671875 1.53125 -0.671875q0.9375 0 1.59375 0.671875q0.65625 0.65625 0.65625 1.578125q0 0.921875 -0.65625 1.5625q-0.65625 0.640625 -1.59375 0.640625zm-1.625 24.28125l0 -21.25l3.296875 0l0 21.25l-3.296875 0zm24.243713 0l0 -13.90625q0 -2.8125 -1.296875 -3.859375q-1.296875 -1.0625 -3.453125 -1.0625q-1.84375 0 -3.625 0.984375q-1.78125 0.984375 -2.671875 2.3125l0 15.53125l-3.296875 0l0 -21.25l3.296875 0l0 3.078125q1.375 -1.578125 3.375 -2.59375q2.0 -1.015625 4.203125 -1.015625q6.765625 0 6.765625 6.859375l0 14.921875l-3.296875 0zm18.447083 8.625q-2.734375 0 -4.71875 -0.671875q-1.984375 -0.65625 -3.875 -2.5l1.671875 -2.46875q1.328125 1.59375 2.96875 2.25q1.65625 0.65625 3.953125 0.65625q3.25 0 5.03125 -1.6875q1.78125 -1.6875 1.78125 -4.6875l0 -3.03125q-1.140625 1.625 -3.015625 2.703125q-1.875 1.078125 -4.109375 1.078125q-4.3125 0 -6.890625 -3.03125q-2.578125 -3.046875 -2.578125 -7.96875q0 -5.109375 2.609375 -8.078125q2.625 -2.96875 6.859375 -2.96875q4.390625 0 7.125 3.734375l0 -3.203125l3.296875 0l0 20.640625q0 4.484375 -2.640625 6.859375q-2.640625 2.375 -7.46875 2.375zm0.46875 -11.265625q1.8125 0 3.59375 -0.96875q1.78125 -0.96875 2.75 -2.5l0 -9.296875q-0.96875 -1.53125 -2.78125 -2.46875q-1.796875 -0.953125 -3.5625 -0.953125q-3.109375 0 -4.96875 2.25q-1.84375 2.234375 -1.84375 5.84375q0 3.65625 1.890625 5.875q1.890625 2.21875 4.921875 2.21875zm18.00595 -14.078125q-1.015625 0 -1.71875 -0.703125q-0.703125 -0.703125 -0.703125 -1.71875q0 -1.015625 0.703125 -1.71875q0.703125 -0.703125 1.71875 -0.703125q1.015625 0 1.71875 0.703125q0.703125 0.703125 0.703125 1.71875q0 1.015625 -0.703125 1.71875q-0.703125 0.703125 -1.71875 0.703125zm0 17.15625q-1.015625 0 -1.71875 -0.703125q-0.703125 -0.703125 -0.703125 -1.71875q0 -1.0 0.703125 -1.703125q0.703125 -0.71875 1.71875 -0.71875q1.015625 0 1.71875 0.71875q0.703125 0.703125 0.703125 1.703125q0 1.015625 -0.703125 1.71875q-0.703125 0.703125 -1.71875 0.703125zm40.784454 -0.4375l-2.59375 -6.515625l-14.609375 0l-2.59375 6.515625l-4.1875 0l11.796875 -29.34375l4.53125 0l11.84375 29.34375l-4.1875 0zm-9.90625 -25.5625l-6.234375 15.796875l12.453125 0l-6.21875 -15.796875zm29.272644 25.5625l0 -29.34375l3.640625 0l0 26.09375l13.640625 0l0 3.25l-17.28125 0zm23.924316 -24.28125q-0.875 0 -1.53125 -0.640625q-0.65625 -0.640625 -0.65625 -1.5625q0 -0.921875 0.65625 -1.578125q0.65625 -0.671875 1.53125 -0.671875q0.9375 0 1.59375 0.671875q0.65625 0.65625 0.65625 1.578125q0 0.921875 -0.65625 1.5625q-0.65625 0.640625 -1.59375 0.640625zm-1.625 24.28125l0 -21.25l3.296875 0l0 21.25l-3.296875 0zm15.274933 0.53125q-4.7187195 0 -4.7187195 -4.96875l0 -13.90625l-3.515625 0l0 -2.90625l3.515625 0l0 -5.8125l3.3125 0l0 5.8125l4.3124695 0l0 2.90625l-4.3124695 0l0 13.203125q0 1.1875 0.5155945 1.953125q0.53125 0.765625 1.640625 0.765625q1.359375 0 2.234375 -0.875l0.96875 2.453125q-1.359375 1.375 -3.953125 1.375zm12.935974 0q-4.71875 0 -4.71875 -4.96875l0 -13.90625l-3.515625 0l0 -2.90625l3.515625 0l0 -5.8125l3.3125 0l0 5.8125l4.3125 0l0 2.90625l-4.3125 0l0 13.203125q0 1.1875 0.515625 1.953125q0.53125 0.765625 1.640625 0.765625q1.359375 0 2.234375 -0.875l0.96875 2.453125q-1.359375 1.375 -3.953125 1.375zm7.560974 -0.53125l0 -29.34375l3.296875 0l0 29.34375l-3.296875 0zm19.493713 0.53125q-4.796875 0 -7.8125 -3.125q-3.015625 -3.125 -3.015625 -8.046875q0 -4.71875 2.984375 -7.921875q3.0 -3.21875 7.5 -3.21875q4.5625 0 7.375 3.171875q2.828125 3.171875 2.828125 8.21875l0 0.84375l-17.203125 0q0.171875 3.25 2.34375 5.296875q2.1875 2.046875 5.3125 2.046875q3.875 0 6.546875 -2.6875l1.59375 2.15625q-3.265625 3.265625 -8.453125 3.265625zm6.59375 -12.5q0 -2.953125 -1.9375 -5.015625q-1.921875 -2.0625 -5.046875 -2.0625q-2.953125 0 -4.921875 2.0625q-1.953125 2.0625 -2.03125 5.015625l13.9375 0zm20.077026 11.96875l0 -29.34375l19.21875 0l0 3.25l-15.578125 0l0 9.46875l15.28125 0l0 3.25l-15.28125 0l0 13.375l-3.640625 0zm25.684326 -24.28125q-0.875 0 -1.53125 -0.640625q-0.65625 -0.640625 -0.65625 -1.5625q0 -0.921875 0.65625 -1.578125q0.65625 -0.671875 1.53125 -0.671875q0.9375 0 1.59375 0.671875q0.65625 0.65625 0.65625 1.578125q0 0.921875 -0.65625 1.5625q-0.65625 0.640625 -1.59375 0.640625zm-1.625 24.28125l0 -21.25l3.296875 0l0 21.25l-3.296875 0zm9.899963 0l0 -29.34375l3.296875 0l0 29.34375l-3.296875 0zm35.556213 0l0 -14.4375q0 -4.390625 -3.921875 -4.390625q-1.671875 0 -3.234375 0.984375q-1.5625 0.984375 -2.390625 2.265625l0 15.578125l-3.296875 0l0 -14.4375q0 -4.390625 -3.921875 -4.390625q-1.625 0 -3.171875 1.015625q-1.53125 1.0 -2.421875 2.28125l0 15.53125l-3.296875 0l0 -21.25l3.296875 0l0 3.078125q0.75 -1.28125 2.8125 -2.4375q2.078125 -1.171875 4.0625 -1.171875q2.453125 0 3.84375 1.15625q1.390625 1.140625 1.875 2.8125q1.09375 -1.71875 3.109375 -2.84375q2.03125 -1.125 4.015625 -1.125q5.9375 0 5.9375 6.421875l0 15.359375l-3.296875 0zm42.325806 0l-2.59375 -6.515625l-14.609375 0l-2.59375 6.515625l-4.1875 0l11.796875 -29.34375l4.53125 0l11.84375 29.34375l-4.1875 0zm-9.90625 -25.5625l-6.234375 15.796875l12.453125 0l-6.21875 -15.796875zm21.076904 19.796875q0.890625 1.40625 2.625 2.375q1.734375 0.96875 3.71875 0.96875q3.125 0 4.984375 -2.265625q1.875 -2.265625 1.875 -5.921875q0 -3.6875 -1.84375 -5.953125q-1.84375 -2.265625 -5.015625 -2.265625q-1.984375 0 -3.71875 1.015625q-1.734375 1.0 -2.625 2.40625l0 9.640625zm-3.296875 5.765625l0 -29.34375l3.296875 0l0 11.296875q2.734375 -3.734375 7.171875 -3.734375q4.234375 0 6.84375 3.078125q2.625 3.078125 2.625 8.09375q0 5.109375 -2.625 8.125q-2.609375 3.015625 -6.84375 3.015625q-2.234375 0 -4.109375 -1.03125q-1.875 -1.046875 -3.0625 -2.671875l0 3.171875l-3.296875 0zm34.581177 0.53125q-4.609375 0 -7.5625 -3.140625q-2.953125 -3.15625 -2.953125 -8.03125q0 -4.9375 2.953125 -8.03125q2.953125 -3.109375 7.5625 -3.109375q4.625 0 7.5625 3.109375q2.953125 3.09375 2.953125 8.03125q0 4.875 -2.953125 8.03125q-2.9375 3.140625 -7.5625 3.140625zm0 -2.953125q3.078125 0 5.0625 -2.3125q1.984375 -2.3125 1.984375 -5.90625q0 -3.578125 -1.984375 -5.875q-1.984375 -2.3125 -5.0625 -2.3125q-3.078125 0 -5.078125 2.296875q-2.0 2.28125 -2.0 5.890625q0 3.640625 1.96875 5.9375q1.984375 2.28125 5.109375 2.28125zm30.230469 2.421875l0 -2.984375q-1.234375 1.40625 -3.21875 2.46875q-1.96875 1.046875 -4.34375 1.046875q-6.78125 0 -6.78125 -6.78125l0 -15.0l3.296875 0l0 13.984375q0 2.515625 1.140625 3.6875q1.15625 1.15625 3.625 1.15625q1.921875 0 3.640625 -0.96875q1.71875 -0.96875 2.640625 -2.234375l0 -15.625l3.296875 0l0 21.25l-3.296875 0zm15.2752075 0.53125q-4.71875 0 -4.71875 -4.96875l0 -13.90625l-3.515625 0l0 -2.90625l3.515625 0l0 -5.8125l3.3125 0l0 5.8125l4.3125 0l0 2.90625l-4.3125 0l0 13.203125q0 1.1875 0.515625 1.953125q0.53125 0.765625 1.640625 0.765625q1.359375 0 2.234375 -0.875l0.96875 2.453125q-1.359375 1.375 -3.953125 1.375zm32.20984 -0.53125l0 -2.421875q-2.6875 2.953125 -7.046875 2.953125q-3.203125 0 -5.328125 -2.015625q-2.109375 -2.03125 -2.109375 -5.03125q0 -3.078125 2.09375 -5.03125q2.09375 -1.96875 5.34375 -1.96875q4.578125 0 7.046875 2.90625l0 -3.828125q0 -2.15625 -1.53125 -3.3125q-1.515625 -1.171875 -3.84375 -1.171875q-3.734375 0 -6.515625 2.953125l-1.53125 -2.296875q3.390625 -3.515625 8.484375 -3.515625q3.921875 0 6.078125 1.890625q2.15625 1.890625 2.15625 5.28125l0 14.609375l-3.296875 0zm-5.859375 -1.84375q3.921875 0 5.859375 -2.640625l0 -4.0q-1.9375 -2.640625 -5.859375 -2.640625q-2.328125 0 -3.78125 1.296875q-1.453125 1.296875 -1.453125 3.359375q0 2.03125 1.453125 3.328125q1.453125 1.296875 3.78125 1.296875zm27.243042 1.84375l0 -29.34375l13.0625 0q3.734375 0 5.984375 2.046875q2.25 2.046875 2.25 5.421875q0 2.609375 -1.4375 4.421875q-1.421875 1.796875 -3.71875 2.3125q2.328125 0.359375 4.015625 2.46875q1.703125 2.109375 1.703125 4.75q0 3.609375 -2.265625 5.765625q-2.265625 2.15625 -6.21875 2.15625l-13.375 0zm12.453125 -16.625q2.5 0 3.765625 -1.34375q1.28125 -1.34375 1.28125 -3.375q0 -1.96875 -1.28125 -3.359375q-1.265625 -1.390625 -3.765625 -1.390625l-8.8125 0l0 9.46875l8.8125 0zm0.171875 13.375q2.59375 0 4.015625 -1.34375q1.4375 -1.34375 1.4375 -3.71875q0 -2.25 -1.5 -3.65625q-1.484375 -1.40625 -3.953125 -1.40625l-8.984375 0l0 10.125l8.984375 0zm16.53534 -21.03125q-0.875 0 -1.53125 -0.640625q-0.65625 -0.640625 -0.65625 -1.5625q0 -0.921875 0.65625 -1.578125q0.65625 -0.671875 1.53125 -0.671875q0.9375 0 1.59375 0.671875q0.65625 0.65625 0.65625 1.578125q0 0.921875 -0.65625 1.5625q-0.65625 0.640625 -1.59375 0.640625zm-1.625 24.28125l0 -21.25l3.296875 0l0 21.25l-3.296875 0zm18.446838 8.625q-2.734375 0 -4.71875 -0.671875q-1.984375 -0.65625 -3.875 -2.5l1.671875 -2.46875q1.328125 1.59375 2.96875 2.25q1.65625 0.65625 3.953125 0.65625q3.25 0 5.03125 -1.6875q1.78125 -1.6875 1.78125 -4.6875l0 -3.03125q-1.140625 1.625 -3.015625 2.703125q-1.875 1.078125 -4.109375 1.078125q-4.3125 0 -6.890625 -3.03125q-2.578125 -3.046875 -2.578125 -7.96875q0 -5.109375 2.609375 -8.078125q2.625 -2.96875 6.859375 -2.96875q4.390625 0 7.125 3.734375l0 -3.203125l3.296875 0l0 20.640625q0 4.484375 -2.640625 6.859375q-2.640625 2.375 -7.46875 2.375zm0.46875 -11.265625q1.8125 0 3.59375 -0.96875q1.78125 -0.96875 2.75 -2.5l0 -9.296875q-0.96875 -1.53125 -2.78125 -2.46875q-1.796875 -0.953125 -3.5625 -0.953125q-3.109375 0 -4.96875 2.25q-1.84375 2.234375 -1.84375 5.84375q0 3.65625 1.890625 5.875q1.890625 2.21875 4.921875 2.21875zm27.73291 2.640625l0 -29.34375l3.640625 0l0 29.34375l-3.640625 0zm25.781616 0l0 -3.171875q-1.1875 1.625 -3.0625 2.671875q-1.875 1.03125 -4.109375 1.03125q-4.265625 0 -6.875 -3.03125q-2.59375 -3.046875 -2.59375 -8.109375q0 -5.09375 2.609375 -8.125q2.625 -3.046875 6.859375 -3.046875q2.15625 0 4.015625 1.0q1.875 0.984375 3.15625 2.734375l0 -11.296875l3.296875 0l0 29.34375l-3.296875 0zm-6.390625 -2.421875q1.984375 0 3.734375 -0.96875q1.765625 -0.96875 2.65625 -2.375l0 -9.640625q-0.890625 -1.40625 -2.65625 -2.40625q-1.75 -1.015625 -3.734375 -1.015625q-3.078125 0 -4.953125 2.25q-1.859375 2.234375 -1.859375 5.96875q0 3.65625 1.84375 5.921875q1.859375 2.265625 4.96875 2.265625zm25.878052 2.953125q-4.796875 0 -7.8125 -3.125q-3.015625 -3.125 -3.015625 -8.046875q0 -4.71875 2.984375 -7.921875q3.0 -3.21875 7.5 -3.21875q4.5625 0 7.375 3.171875q2.828125 3.171875 2.828125 8.21875l0 0.84375l-17.203125 0q0.171875 3.25 2.34375 5.296875q2.1875 2.046875 5.3125 2.046875q3.875 0 6.546875 -2.6875l1.59375 2.15625q-3.265625 3.265625 -8.453125 3.265625zm6.59375 -12.5q0 -2.953125 -1.9375 -5.015625q-1.921875 -2.0625 -5.046875 -2.0625q-2.953125 0 -4.921875 2.0625q-1.953125 2.0625 -2.03125 5.015625l13.9375 0zm21.881287 11.96875l0 -2.421875q-2.6875 2.953125 -7.046875 2.953125q-3.203125 0 -5.328125 -2.015625q-2.109375 -2.03125 -2.109375 -5.03125q0 -3.078125 2.09375 -5.03125q2.09375 -1.96875 5.34375 -1.96875q4.578125 0 7.046875 2.90625l0 -3.828125q0 -2.15625 -1.53125 -3.3125q-1.515625 -1.171875 -3.84375 -1.171875q-3.734375 0 -6.515625 2.953125l-1.53125 -2.296875q3.390625 -3.515625 8.484375 -3.515625q3.921875 0 6.078125 1.890625q2.15625 1.890625 2.15625 5.28125l0 14.609375l-3.296875 0zm-5.859375 -1.84375q3.921875 0 5.859375 -2.640625l0 -4.0q-1.9375 -2.640625 -5.859375 -2.640625q-2.328125 0 -3.78125 1.296875q-1.453125 1.296875 -1.453125 3.359375q0 2.03125 1.453125 3.328125q1.453125 1.296875 3.78125 1.296875z" fill-rule="nonzero"/><path fill="#000000" d="m82.27034 515.8602l905.20996 0l0 3.960022l-905.20996 0l0 -3.960022z" fill-rule="nonzero"/><a xlink:href="https://www.google.com/url?q=https://help.cabreraresearch.org/resources&amp;sa=D&amp;ust=1602625285370000&amp;usg=AFQjCNEWAgm49c7HSVGgNVx2pwLM2U58jw" target="_blank" rel="noreferrer"><path fill="transparent" fill-opacity="0" d="m82.27034 378.98425l427.45923 0l0 47.51999l-427.45923 0l0 -47.51999z" fill-rule="nonzero"/></a><a xlink:href="https://www.google.com/url?q=https://www.youtube.com/watch?v%3D-sfiReUu3o0%26list%3DPLJYST9b0XMPtkKf7EGWJqNtYfLr3KFA2L%26index%3D1&amp;sa=D&amp;ust=1602625285370000&amp;usg=AFQjCNExJcwf8BR8jA03eMt_HVKQjU9J4w" target="_blank" rel="noreferrer"><path fill="transparent" fill-opacity="0" d="m82.27034 474.98425l905.20996 0l0 47.51996l-905.20996 0l0 -47.51996z" fill-rule="nonzero"/></a><path fill="#000000" fill-opacity="0.0" d="m25.39895 14.6535225l632.50397 0l0 123.055115l-632.50397 0z" fill-rule="evenodd"/><path fill="#000000" d="m58.633324 53.834637l-0.0625 2.28125q0 0.6875 -0.03125 1.375q-0.015625 0.6875 -0.015625 1.265625q6.703125 -6.125 13.453125 -8.421875q2.1875 -0.6875 4.53125 -0.75l0.109375 0q2.234375 0 4.015625 0.859375q1.828125 0.921875 2.921875 2.1875q1.953125 2.28125 1.953125 4.75q0 2.515625 -0.640625 3.953125q-0.625 1.4375 -1.765625 2.46875q-2.40625 2.2343712 -4.765625 2.2343712q-2.40625 0 -3.671875 -0.65625q-1.25 -0.671875 -2.21875 -1.7031212q-2.0625 -2.171875 -2.0625 -4.859375q-3.328125 1.546875 -5.046875 3.546875q-1.71875 1.9999962 -2.859375 3.7187462l-2.53125 3.90625l0 30.015625l13.921875 0q1.328125 0 1.328125 3.5q0 2.796875 -0.84375 3.6875q-0.828125 0.890625 -1.515625 0.890625l-33.34375 0q-1.59375 0 -1.59375 -3.609375q0.046875 -2.640625 1.546875 -4.0625q0.453125 -0.40625 2.0 -0.40625q1.546875 0 3.171875 -0.140625q1.640625 -0.140625 2.5625 -0.4375q1.59375 -0.515625 1.59375 -1.890625l0 -37.749996l-10.078125 0q-2.234375 0 -2.234375 -4.46875q0 -2.859375 1.453125 -3.484375q1.46875 -0.640625 3.8125 -1.046875q2.40625 -0.453125 4.9375 -0.6875q4.8125 -0.453125 7.609375 -0.515625l0.46875 0q2.34375 0 2.796875 0.296875q0.578125 0.21875 0.8125 0.796875q0.28125 0.578125 0.28125 2.46875l0 0.6875zm32.023758 24.796871q0 -7.09375 2.34375 -12.59375q2.296875 -5.390621 6.1875 -9.062496q7.90625 -7.328125 19.546875 -7.390625l0.171875 0q10.656258 0 16.437508 6.703125q5.78125 6.65625 5.78125 19.203121q0 2.6875 -2.453125 4.640625q-2.40625 1.890625 -6.078125 1.890625l-30.187508 0q1.03125 13.40625 9.328125 17.1875q2.640625 1.203125 5.5625 1.203125q2.921875 0 5.203125 -0.65625q2.296875 -0.671875 4.421875 -1.671875q2.1250076 -1.0 4.1250076 -2.265625q4.1875 -2.625 4.921875 -2.625q0.6875 0.046875 1.5 0.6875q0.6875 0.6875 1.375 1.59375q1.484375 2.1875 1.546875 3.671875l0 0.109375q0 1.375 -0.640625 1.84375q-10.484375 8.125 -23.828133 8.125q-11.96875 0 -18.671875 -8.359375q-6.59375 -8.140625 -6.59375 -22.234375zm38.734383 -5.203125l0 -0.234375q0 -11.343746 -6.5937576 -13.984371q-2.0625 -0.796875 -4.578125 -0.796875q-2.53125 0 -5.28125 0.921875q-2.75 0.96875 -5.03125 2.796875q-5.109375 4.187496 -5.5 11.296871l26.984383 0zm21.59111 34.65625q-1.546875 0 -1.546875 -3.5q0 -2.75 0.859375 -3.65625q0.859375 -0.921875 1.484375 -0.921875l0.578125 0q6.640625 0 7.5625 -1.3125q0.34375 -0.46875 0.34375 -1.15625l0 -37.98437l-10.9375 0q0 -6.296875 0.765625 -7.546875q0.78125 -1.265625 1.6875 -1.265625l0.578125 0q6.640625 0 7.5625 -1.328125q0.34375 -0.453125 0.34375 -1.140625l0 -7.21875q0 -16.5 10.25 -21.703125q3.78125 -1.953125 7.734375 -1.953125q3.953125 0 6.125 0.40625q2.1875 0.390625 3.90625 1.484375q4.015625 2.46875 4.015625 7.625q0 3.375 -2.296875 5.671875q-2.171875 2.171875 -5.5625 2.171875q-5.328125 0 -7.265625 -4.703125q-0.578125 -1.421875 -0.578125 -3.140625l0 -1.84375l-0.0625 0q-4.640625 0 -4.984375 9.6875q-0.109375 2.75 -0.109375 5.5l0 10.484375l15.40625 0q1.4375 0 1.4375 3.375q0 3.328125 -1.375 4.921875q-0.40625 0.515625 -1.09375 0.515625l-14.375 0l0 40.45312l12.953125 0q1.546875 0 1.546875 3.5q0 2.75 -0.859375 3.671875q-0.859375 0.90625 -1.5 0.90625l-32.59375 0zm43.82611 -29.453125q0 -7.09375 2.34375 -12.59375q2.296875 -5.390621 6.1875 -9.062496q7.90625 -7.328125 19.546875 -7.390625l0.171875 0q10.65625 0 16.4375 6.703125q5.78125 6.65625 5.78125 19.203121q0 2.6875 -2.453125 4.640625q-2.40625 1.890625 -6.078125 1.890625l-30.1875 0q1.03125 13.40625 9.328125 17.1875q2.640625 1.203125 5.5625 1.203125q2.921875 0 5.203125 -0.65625q2.296875 -0.671875 4.421875 -1.671875q2.125 -1.0 4.125 -2.265625q4.1875 -2.625 4.921875 -2.625q0.6875 0.046875 1.5 0.6875q0.6875 0.6875 1.375 1.59375q1.484375 2.1875 1.546875 3.671875l0 0.109375q0 1.375 -0.640625 1.84375q-10.484375 8.125 -23.828125 8.125q-11.96875 0 -18.671875 -8.359375q-6.59375 -8.140625 -6.59375 -22.234375zm38.734375 -5.203125l0 -0.234375q0 -11.343746 -6.59375 -13.984371q-2.0625 -0.796875 -4.578125 -0.796875q-2.53125 0 -5.28125 0.921875q-2.75 0.96875 -5.03125 2.796875q-5.109375 4.187496 -5.5 11.296871l26.984375 0zm40.497345 -19.593746l-0.0625 2.28125q0 0.6875 -0.03125 1.375q-0.015625 0.6875 -0.015625 1.265625q6.703125 -6.125 13.4531555 -8.421875q2.1875 -0.6875 4.53125 -0.75l0.109375 0q2.234375 0 4.015625 0.859375q1.828125 0.921875 2.921875 2.1875q1.953125 2.28125 1.953125 4.75q0 2.515625 -0.640625 3.953125q-0.625 1.4375 -1.765625 2.46875q-2.40625 2.2343712 -4.765625 2.2343712q-2.40625 0 -3.671875 -0.65625q-1.25 -0.671875 -2.21875 -1.7031212q-2.0625 -2.171875 -2.0625 -4.859375q-3.328125 1.546875 -5.0469055 3.546875q-1.71875 1.9999962 -2.859375 3.7187462l-2.53125 3.90625l0 30.015625l13.9219055 0q1.328125 0 1.328125 3.5q0 2.796875 -0.84375 3.6875q-0.828125 0.890625 -1.515625 0.890625l-33.343765 0q-1.59375 0 -1.59375 -3.609375q0.046875 -2.640625 1.546875 -4.0625q0.453125 -0.40625 1.9999847 -0.40625q1.546875 0 3.171875 -0.140625q1.640625 -0.140625 2.5625 -0.4375q1.59375 -0.515625 1.59375 -1.890625l0 -37.749996l-10.07811 0q-2.234375 0 -2.234375 -4.46875q0 -2.859375 1.453125 -3.484375q1.46875 -0.640625 3.8124847 -1.046875q2.40625 -0.453125 4.9375 -0.6875q4.8125 -0.453125 7.609375 -0.515625l0.46875 0q2.34375 0 2.796875 0.296875q0.578125 0.21875 0.8125 0.796875q0.28125 0.578125 0.28125 2.46875l0 0.6875zm32.023773 24.796871q0 -7.09375 2.34375 -12.59375q2.296875 -5.390621 6.1875 -9.062496q7.90625 -7.328125 19.546875 -7.390625l0.171875 0q10.65625 0 16.4375 6.703125q5.78125 6.65625 5.78125 19.203121q0 2.6875 -2.453125 4.640625q-2.40625 1.890625 -6.078125 1.890625l-30.1875 0q1.03125 13.40625 9.328125 17.1875q2.640625 1.203125 5.5625 1.203125q2.921875 0 5.203125 -0.65625q2.296875 -0.671875 4.421875 -1.671875q2.125 -1.0 4.125 -2.265625q4.1875 -2.625 4.921875 -2.625q0.6875 0.046875 1.5 0.6875q0.6875 0.6875 1.375 1.59375q1.484375 2.1875 1.546875 3.671875l0 0.109375q0 1.375 -0.640625 1.84375q-10.484375 8.125 -23.828125 8.125q-11.96875 0 -18.671875 -8.359375q-6.59375 -8.140625 -6.59375 -22.234375zm38.734375 -5.203125l0 -0.234375q0 -11.343746 -6.59375 -13.984371q-2.0625 -0.796875 -4.578125 -0.796875q-2.53125 0 -5.28125 0.921875q-2.75 0.96875 -5.03125 2.796875q-5.109375 4.187496 -5.5 11.296871l26.984375 0zm-26.296875 -34.093746q-1.953125 0 -3.046875 -1.25q-1.765625 -2.1875 -1.765625 -4.46875l14.65625 -10.140625q2.40625 -1.609375 4.015625 -1.609375q2.0625 0 4.53125 1.609375l14.65625 10.140625q0 3.65625 -2.921875 5.265625q-0.859375 0.453125 -1.890625 0.453125l-14.03125 -6.703125l-14.203125 6.703125zm86.89838 68.75q-1.484375 0 -1.484375 -3.5q0 -2.75 0.859375 -3.65625q0.859375 -0.921875 1.484375 -0.921875q5.96875 0 5.96875 -2.46875l0 -17.015625q0 -11.109375 -1.265625 -14.578125q-1.265625 -3.4687462 -3.25 -4.921871q-1.96875 -1.46875 -5.34375 -1.46875q-6.359375 0 -15.703125 7.390621l0 33.0625l9.625 0q1.5 0 1.5 3.5q0 2.75 -0.859375 3.671875q-0.859375 0.90625 -1.5 0.90625l-29.21875 0q-1.484375 0 -1.484375 -3.5q0 -2.75 0.859375 -3.65625q0.859375 -0.921875 1.484375 -0.921875l0.578125 0q6.59375 0 7.5 -1.3125q0.34375 -0.46875 0.34375 -1.15625l0 -37.98437l-10.078125 0q-1.78125 -0.046875 -2.234375 -2.796875q-0.109375 -0.8125 -0.109375 -1.671875q0 -2.625 1.515625 -3.21875q1.515625 -0.609375 3.859375 -1.078125q2.359375 -0.453125 4.9375 -0.6875q5.15625 -0.5625 7.734375 -0.5625l0.21875 0q2.53125 0.046875 3.046875 0.5625q0.5625 0.578125 0.796875 1.5q0.28125 0.96875 0.28125 4.0625l0 1.09375q8.65625 -4.8125 15.765625 -6.59375q2.28125 -0.578125 5.84375 -0.578125q3.484375 0 7.03125 1.53125q3.5625 1.515625 5.625 4.375q3.65625 5.046875 3.65625 16.046871l0 28.46875l8.890625 0q1.546875 0 1.546875 3.5q0 2.75 -0.859375 3.671875q-0.859375 0.90625 -1.5 0.90625l-26.0625 0zm66.69464 -50.42187l-5.328125 0q-5.96875 0 -10.265625 4.53125q-5.5 5.781246 -5.5 16.671871q0 15.921875 8.890625 20.171875q2.796875 1.375 5.71875 1.375q2.921875 0 5.265625 -0.625q2.359375 -0.640625 4.59375 -1.671875q2.296875 -0.96875 4.359375 -2.234375l4.0625 -2.46875q0.234375 -0.171875 0.796875 -0.171875q0.515625 0 1.3125 0.671875q0.8125 0.65625 1.5 1.5625q1.484375 2.1875 1.484375 3.609375q0 1.4375 -0.625 1.953125q-10.9375 8.1875 -23.828125 8.1875q-11.984375 0 -18.734375 -8.296875q-6.53125 -8.03125 -6.53125 -22.0625q0 -13.75 8.296875 -21.765621q7.796875 -7.453125 19.890625 -7.515625q12.9375 0.0625 17.921875 5.671875q1.890625 2.1875 1.890625 4.640625q0 2.46875 -0.5625 3.90625q-0.6875 1.4218712 -1.71875 2.4531212q-2.296875 2.234375 -5.5625 2.234375q-3.265625 0 -5.5625 -2.234375q-2.28125 -2.171875 -2.28125 -4.343746q0 -2.1875 0.515625 -4.25zm38.721405 -22.453125q-5.328125 0 -7.28125 -4.6875q-0.5625 -1.4375 -0.5625 -3.15625q0 -5.4375 4.75 -7.390625q1.4375 -0.578125 3.09375 -0.578125q3.328125 0 5.578125 2.265625q2.265625 2.265625 2.265625 5.703125q0 3.375 -2.28125 5.671875q-2.1875 2.171875 -5.5625 2.171875zm-13.640625 72.875q-1.484375 0 -1.484375 -3.5q0 -2.75 0.859375 -3.65625q0.859375 -0.921875 1.484375 -0.921875l0.578125 0q6.703125 0 7.5625 -1.3125q0.28125 -0.40625 0.28125 -0.984375l0 -38.156246l-10.078125 0q-1.65625 -0.046875 -2.234375 -2.921875q-0.109375 -0.796875 -0.109375 -1.65625q0 -2.640625 1.546875 -3.234375q1.546875 -0.609375 4.0625 -1.0q2.515625 -0.40625 5.265625 -0.640625q5.28125 -0.453125 10.140625 -0.515625l0.0625 0q2.40625 0 2.515625 4.875l0 45.54687l9.625 0q1.5 0 1.5 3.5q0 2.75 -0.859375 3.671875q-0.859375 0.90625 -1.5 0.90625l-29.21875 0zm54.487854 -50.42187q0.6875 1.5 0.6875 3.390625q0 1.890625 -0.578125 3.3124962q-0.6875 1.4375 -1.71875 2.46875q-2.171875 2.171875 -5.546875 2.234375q-5.328125 0 -7.28125 -4.703125q-0.578125 -1.4218712 -0.578125 -3.5468712q0 -2.0625 1.203125 -3.890625q1.203125 -1.84375 3.171875 -3.15625q1.984375 -1.3125 4.46875 -2.109375q2.5 -0.8125 5.078125 -1.265625q4.53125 -0.8125 9.921875 -0.8125q5.328125 0 9.25 1.71875q3.921875 1.71875 6.21875 4.640625q3.953125 5.109375 3.953125 14.437496l0 29.625l9.609375 0q1.546875 0 1.546875 3.375q0 1.5 -0.578125 2.96875q-0.5625 1.453125 -1.765625 1.734375q-3.203125 0.921875 -9.15625 0.921875q-6.015625 0 -6.703125 -0.203125q-0.6875 -0.203125 -1.265625 -0.71875q-1.09375 -0.96875 -2.171875 -3.953125q-7.0 5.09375 -16.84375 5.09375q-8.828125 0 -13.875 -4.6875q-4.75 -4.359375 -4.75 -11.40625l0 -0.171875q0 -8.765625 6.46875 -13.6875q5.671875 -4.359375 14.15625 -4.359375l14.15625 0q0 -9.5625 -1.578125 -12.343746q-1.578125 -2.78125 -3.78125 -3.84375q-2.203125 -1.0625 -5.875 -1.0625l-5.84375 0zm2.984375 42.749996q7.21875 0 14.09375 -5.734375l0 -11.171875l-12.5 0q-4.578125 0 -6.75 1.546875q-3.953125 2.75 -3.953125 6.359375q0 6.765625 5.609375 8.484375q1.65625 0.515625 3.5 0.515625zm55.1015 0l6.53125 0q7.96875 0 10.71875 -4.875q0.796875 -1.484375 0.796875 -3.265625q0 -1.78125 -0.828125 -3.0625q-0.828125 -1.296875 -2.609375 -2.375q-2.6875 -1.671875 -8.96875 -3.578125q-6.265625 -1.921875 -9.53125 -3.328125q-3.265625 -1.40625 -5.671875 -3.359375q-4.921875 -4.125 -4.921875 -11.34375q0 -10.593746 11.859375 -14.265621q4.46875 -1.375 8.8125 -1.375q4.296875 0 7.96875 0.578125q3.78125 0.578125 6.765625 1.953125q6.8125 3.140625 6.8125 8.984375l0 0.296875q0 3.2031212 -2.234375 5.437496q-2.171875 2.171875 -5.609375 2.234375q-5.390625 0 -7.34375 -4.703125q-0.5625 -1.4218712 -0.5625 -2.3437462q0 -0.921875 0.6875 -4.359375l-5.671875 0q-4.640625 0 -6.875 1.609375q-4.078125 2.8125 -4.078125 6.187496q0 4.46875 8.03125 7.21875l4.34375 1.484375q11.0625 3.671875 14.203125 6.25q3.15625 2.578125 4.59375 5.625q1.4375 3.03125 1.4375 6.921875q0 3.953125 -1.546875 6.8125q-1.5 2.921875 -4.25 4.984375q-5.890625 4.46875 -15.34375 4.46875q-8.375 0 -15.015625 -2.515625q-4.921875 -1.828125 -6.984375 -5.265625q-1.03125 -1.71875 -1.03125 -3.734375q0 -1.9375 0.5625 -3.375q0.6875 -1.484375 1.71875 -2.515625q2.234375 -2.1875 5.625 -2.1875q3.3125 0 5.609375 2.234375q2.296875 2.1875 2.296875 4.9375l0 0.046875q-0.0625 2.875 -0.296875 3.5625z" fill-rule="nonzero"/></g></svg>